G04 EAGLE Gerber RS-274X export*
G75*
%MOMM*%
%FSLAX34Y34*%
%LPD*%
%IN*%
%IPPOS*%
%AMOC8*
5,1,8,0,0,1.08239X$1,22.5*%
G01*
%ADD10C,0.254000*%


D10*
X491300Y250932D02*
X491300Y257068D01*
X491149Y263203D01*
X490848Y269331D01*
X490397Y275451D01*
X489795Y281558D01*
X489044Y287648D01*
X488144Y293718D01*
X487095Y299763D01*
X485898Y305782D01*
X484553Y311769D01*
X483062Y317721D01*
X481426Y323635D01*
X479644Y329507D01*
X477720Y335334D01*
X475652Y341111D01*
X473444Y346836D01*
X471096Y352505D01*
X468609Y358115D01*
X465986Y363662D01*
X463227Y369143D01*
X460334Y374555D01*
X457309Y379894D01*
X454155Y385157D01*
X450872Y390342D01*
X447463Y395444D01*
X443930Y400461D01*
X440274Y405389D01*
X436499Y410227D01*
X432606Y414970D01*
X428598Y419616D01*
X424477Y424163D01*
X420246Y428607D01*
X415907Y432946D01*
X411463Y437177D01*
X406916Y441298D01*
X402270Y445306D01*
X397527Y449199D01*
X392689Y452974D01*
X387761Y456630D01*
X382744Y460163D01*
X377642Y463572D01*
X372457Y466855D01*
X367194Y470009D01*
X361855Y473034D01*
X356443Y475927D01*
X350962Y478686D01*
X345415Y481309D01*
X339805Y483796D01*
X334136Y486144D01*
X328411Y488352D01*
X322634Y490420D01*
X316807Y492344D01*
X310935Y494126D01*
X305021Y495762D01*
X299069Y497253D01*
X293082Y498598D01*
X287063Y499795D01*
X281018Y500844D01*
X274948Y501744D01*
X268858Y502495D01*
X262751Y503097D01*
X256631Y503548D01*
X250503Y503849D01*
X244368Y504000D01*
X238232Y504000D01*
X232098Y503849D01*
X225969Y503548D01*
X219849Y503097D01*
X213742Y502495D01*
X207652Y501744D01*
X201582Y500844D01*
X195537Y499795D01*
X189518Y498598D01*
X183531Y497253D01*
X177579Y495762D01*
X171665Y494126D01*
X165793Y492344D01*
X159966Y490420D01*
X154189Y488352D01*
X148464Y486144D01*
X142795Y483796D01*
X137185Y481309D01*
X131638Y478686D01*
X126157Y475927D01*
X120745Y473034D01*
X115406Y470009D01*
X110143Y466855D01*
X104959Y463572D01*
X99856Y460163D01*
X94840Y456630D01*
X89911Y452974D01*
X85073Y449199D01*
X80330Y445306D01*
X75684Y441298D01*
X71137Y437177D01*
X66693Y432946D01*
X62354Y428607D01*
X58123Y424163D01*
X54002Y419616D01*
X49994Y414970D01*
X46101Y410227D01*
X42326Y405389D01*
X38670Y400461D01*
X35137Y395444D01*
X31728Y390342D01*
X28445Y385157D01*
X25291Y379894D01*
X22266Y374555D01*
X19373Y369143D01*
X16614Y363662D01*
X13991Y358115D01*
X11504Y352505D01*
X9156Y346836D01*
X6948Y341111D01*
X4880Y335334D01*
X2956Y329507D01*
X1174Y323635D01*
X-462Y317721D01*
X-1953Y311769D01*
X-3298Y305782D01*
X-4495Y299763D01*
X-5544Y293718D01*
X-6444Y287648D01*
X-7195Y281558D01*
X-7797Y275451D01*
X-8248Y269331D01*
X-8549Y263203D01*
X-8700Y257068D01*
X-8700Y250932D01*
X-8549Y244798D01*
X-8248Y238669D01*
X-7797Y232549D01*
X-7195Y226442D01*
X-6444Y220352D01*
X-5544Y214282D01*
X-4495Y208237D01*
X-3298Y202218D01*
X-1953Y196231D01*
X-462Y190279D01*
X1174Y184365D01*
X2956Y178493D01*
X4880Y172666D01*
X6948Y166889D01*
X9156Y161164D01*
X11504Y155495D01*
X13991Y149885D01*
X16614Y144338D01*
X19373Y138857D01*
X22266Y133445D01*
X25291Y128106D01*
X28445Y122843D01*
X31728Y117659D01*
X35137Y112556D01*
X38670Y107540D01*
X42326Y102611D01*
X46101Y97773D01*
X49994Y93030D01*
X54002Y88384D01*
X58123Y83837D01*
X62354Y79393D01*
X66693Y75054D01*
X71137Y70823D01*
X75684Y66702D01*
X80330Y62694D01*
X85073Y58801D01*
X89911Y55026D01*
X94840Y51370D01*
X99856Y47837D01*
X104959Y44428D01*
X110143Y41145D01*
X115406Y37991D01*
X120745Y34966D01*
X126157Y32073D01*
X131638Y29314D01*
X137185Y26691D01*
X142795Y24204D01*
X148464Y21856D01*
X154189Y19648D01*
X159966Y17580D01*
X165793Y15656D01*
X171665Y13874D01*
X177579Y12238D01*
X183531Y10747D01*
X189518Y9402D01*
X195537Y8205D01*
X201582Y7156D01*
X207652Y6256D01*
X213742Y5505D01*
X219849Y4903D01*
X225969Y4452D01*
X232098Y4151D01*
X238232Y4000D01*
X244368Y4000D01*
X250503Y4151D01*
X256631Y4452D01*
X262751Y4903D01*
X268858Y5505D01*
X274948Y6256D01*
X281018Y7156D01*
X287063Y8205D01*
X293082Y9402D01*
X299069Y10747D01*
X305021Y12238D01*
X310935Y13874D01*
X316807Y15656D01*
X322634Y17580D01*
X328411Y19648D01*
X334136Y21856D01*
X339805Y24204D01*
X345415Y26691D01*
X350962Y29314D01*
X356443Y32073D01*
X361855Y34966D01*
X367194Y37991D01*
X372457Y41145D01*
X377642Y44428D01*
X382744Y47837D01*
X387761Y51370D01*
X392689Y55026D01*
X397527Y58801D01*
X402270Y62694D01*
X406916Y66702D01*
X411463Y70823D01*
X415907Y75054D01*
X420246Y79393D01*
X424477Y83837D01*
X428598Y88384D01*
X432606Y93030D01*
X436499Y97773D01*
X440274Y102611D01*
X443930Y107540D01*
X447463Y112556D01*
X450872Y117659D01*
X454155Y122843D01*
X457309Y128106D01*
X460334Y133445D01*
X463227Y138857D01*
X465986Y144338D01*
X468609Y149885D01*
X471096Y155495D01*
X473444Y161164D01*
X475652Y166889D01*
X477720Y172666D01*
X479644Y178493D01*
X481426Y184365D01*
X483062Y190279D01*
X484553Y196231D01*
X485898Y202218D01*
X487095Y208237D01*
X488144Y214282D01*
X489044Y220352D01*
X489795Y226442D01*
X490397Y232549D01*
X490848Y238669D01*
X491149Y244798D01*
X491300Y250932D01*
X142350Y69457D02*
X142350Y70243D01*
X142282Y71026D01*
X142145Y71800D01*
X141942Y72559D01*
X141673Y73297D01*
X141341Y74010D01*
X140948Y74690D01*
X140497Y75334D01*
X139992Y75936D01*
X139436Y76492D01*
X138834Y76997D01*
X138190Y77448D01*
X137510Y77841D01*
X136797Y78173D01*
X136059Y78442D01*
X135300Y78645D01*
X134526Y78782D01*
X133743Y78850D01*
X132957Y78850D01*
X132174Y78782D01*
X131400Y78645D01*
X130641Y78442D01*
X129903Y78173D01*
X129190Y77841D01*
X128510Y77448D01*
X127866Y76997D01*
X127264Y76492D01*
X126708Y75936D01*
X126203Y75334D01*
X125752Y74690D01*
X125359Y74010D01*
X125027Y73297D01*
X124758Y72559D01*
X124555Y71800D01*
X124419Y71026D01*
X124350Y70243D01*
X124350Y69457D01*
X124419Y68674D01*
X124555Y67900D01*
X124758Y67141D01*
X125027Y66403D01*
X125359Y65690D01*
X125752Y65010D01*
X126203Y64366D01*
X126708Y63764D01*
X127264Y63208D01*
X127866Y62703D01*
X128510Y62252D01*
X129190Y61859D01*
X129903Y61527D01*
X130641Y61258D01*
X131400Y61055D01*
X132174Y60919D01*
X132957Y60850D01*
X133743Y60850D01*
X134526Y60919D01*
X135300Y61055D01*
X136059Y61258D01*
X136797Y61527D01*
X137510Y61859D01*
X138190Y62252D01*
X138834Y62703D01*
X139436Y63208D01*
X139992Y63764D01*
X140497Y64366D01*
X140948Y65010D01*
X141341Y65690D01*
X141673Y66403D01*
X141942Y67141D01*
X142145Y67900D01*
X142282Y68674D01*
X142350Y69457D01*
X358250Y437757D02*
X358250Y438543D01*
X358182Y439326D01*
X358045Y440100D01*
X357842Y440859D01*
X357573Y441597D01*
X357241Y442310D01*
X356848Y442990D01*
X356397Y443634D01*
X355892Y444236D01*
X355336Y444792D01*
X354734Y445297D01*
X354090Y445748D01*
X353410Y446141D01*
X352697Y446473D01*
X351959Y446742D01*
X351200Y446945D01*
X350426Y447082D01*
X349643Y447150D01*
X348857Y447150D01*
X348074Y447082D01*
X347300Y446945D01*
X346541Y446742D01*
X345803Y446473D01*
X345090Y446141D01*
X344410Y445748D01*
X343766Y445297D01*
X343164Y444792D01*
X342608Y444236D01*
X342103Y443634D01*
X341652Y442990D01*
X341259Y442310D01*
X340927Y441597D01*
X340658Y440859D01*
X340455Y440100D01*
X340319Y439326D01*
X340250Y438543D01*
X340250Y437757D01*
X340319Y436974D01*
X340455Y436200D01*
X340658Y435441D01*
X340927Y434703D01*
X341259Y433990D01*
X341652Y433310D01*
X342103Y432666D01*
X342608Y432064D01*
X343164Y431508D01*
X343766Y431003D01*
X344410Y430552D01*
X345090Y430159D01*
X345803Y429827D01*
X346541Y429558D01*
X347300Y429355D01*
X348074Y429219D01*
X348857Y429150D01*
X349643Y429150D01*
X350426Y429219D01*
X351200Y429355D01*
X351959Y429558D01*
X352697Y429827D01*
X353410Y430159D01*
X354090Y430552D01*
X354734Y431003D01*
X355336Y431508D01*
X355892Y432064D01*
X356397Y432666D01*
X356848Y433310D01*
X357241Y433990D01*
X357573Y434703D01*
X357842Y435441D01*
X358045Y436200D01*
X358182Y436974D01*
X358250Y437757D01*
X32600Y272721D02*
X32527Y272169D01*
X32383Y271631D01*
X32170Y271116D01*
X31891Y270634D01*
X31552Y270192D01*
X31158Y269798D01*
X30716Y269459D01*
X30234Y269180D01*
X29719Y268967D01*
X29181Y268823D01*
X28629Y268750D01*
X28071Y268750D01*
X27519Y268823D01*
X26981Y268967D01*
X26466Y269180D01*
X25984Y269459D01*
X25542Y269798D01*
X25148Y270192D01*
X24809Y270634D01*
X24530Y271116D01*
X24317Y271631D01*
X24173Y272169D01*
X24100Y272721D01*
X24100Y273279D01*
X24173Y273831D01*
X24317Y274369D01*
X24530Y274884D01*
X24809Y275366D01*
X25148Y275808D01*
X25542Y276202D01*
X25984Y276541D01*
X26466Y276820D01*
X26981Y277033D01*
X27519Y277177D01*
X28071Y277250D01*
X28629Y277250D01*
X29181Y277177D01*
X29719Y277033D01*
X30234Y276820D01*
X30716Y276541D01*
X31158Y276202D01*
X31552Y275808D01*
X31891Y275366D01*
X32170Y274884D01*
X32383Y274369D01*
X32527Y273831D01*
X32600Y273279D01*
X32600Y272721D01*
X32600Y234721D02*
X32527Y234169D01*
X32383Y233631D01*
X32170Y233116D01*
X31891Y232634D01*
X31552Y232192D01*
X31158Y231798D01*
X30716Y231459D01*
X30234Y231180D01*
X29719Y230967D01*
X29181Y230823D01*
X28629Y230750D01*
X28071Y230750D01*
X27519Y230823D01*
X26981Y230967D01*
X26466Y231180D01*
X25984Y231459D01*
X25542Y231798D01*
X25148Y232192D01*
X24809Y232634D01*
X24530Y233116D01*
X24317Y233631D01*
X24173Y234169D01*
X24100Y234721D01*
X24100Y235279D01*
X24173Y235831D01*
X24317Y236369D01*
X24530Y236884D01*
X24809Y237366D01*
X25148Y237808D01*
X25542Y238202D01*
X25984Y238541D01*
X26466Y238820D01*
X26981Y239033D01*
X27519Y239177D01*
X28071Y239250D01*
X28629Y239250D01*
X29181Y239177D01*
X29719Y239033D01*
X30234Y238820D01*
X30716Y238541D01*
X31158Y238202D01*
X31552Y237808D01*
X31891Y237366D01*
X32170Y236884D01*
X32383Y236369D01*
X32527Y235831D01*
X32600Y235279D01*
X32600Y234721D01*
X454198Y180434D02*
X453613Y180511D01*
X453023Y180511D01*
X452438Y180434D01*
X451868Y180281D01*
X451323Y180056D01*
X450812Y179761D01*
X450344Y179402D01*
X449927Y178985D01*
X449568Y178517D01*
X449273Y178006D01*
X449047Y177461D01*
X448895Y176891D01*
X448818Y176306D01*
X448818Y175716D01*
X448895Y175131D01*
X449047Y174562D01*
X449273Y174017D01*
X449568Y173506D01*
X449927Y173038D01*
X450344Y172621D01*
X450812Y172261D01*
X451323Y171967D01*
X451868Y171741D01*
X452438Y171588D01*
X453023Y171511D01*
X453613Y171511D01*
X454198Y171588D01*
X454767Y171741D01*
X455312Y171967D01*
X455823Y172261D01*
X456291Y172621D01*
X456708Y173038D01*
X457067Y173506D01*
X457362Y174017D01*
X457588Y174562D01*
X457741Y175131D01*
X457818Y175716D01*
X457818Y176306D01*
X457741Y176891D01*
X457588Y177461D01*
X457362Y178006D01*
X457067Y178517D01*
X456708Y178985D01*
X456291Y179402D01*
X455823Y179761D01*
X455312Y180056D01*
X454767Y180281D01*
X454198Y180434D01*
X461962Y209412D02*
X461377Y209489D01*
X460787Y209489D01*
X460203Y209412D01*
X459633Y209259D01*
X459088Y209033D01*
X458577Y208739D01*
X458109Y208379D01*
X457692Y207962D01*
X457333Y207494D01*
X457038Y206983D01*
X456812Y206438D01*
X456659Y205869D01*
X456582Y205284D01*
X456582Y204694D01*
X456659Y204109D01*
X456812Y203539D01*
X457038Y202994D01*
X457333Y202483D01*
X457692Y202015D01*
X458109Y201598D01*
X458577Y201239D01*
X459088Y200944D01*
X459633Y200719D01*
X460203Y200566D01*
X460787Y200489D01*
X461377Y200489D01*
X461962Y200566D01*
X462532Y200719D01*
X463077Y200944D01*
X463588Y201239D01*
X464056Y201598D01*
X464473Y202015D01*
X464832Y202483D01*
X465127Y202994D01*
X465353Y203539D01*
X465505Y204109D01*
X465582Y204694D01*
X465582Y205284D01*
X465505Y205869D01*
X465353Y206438D01*
X465127Y206983D01*
X464832Y207494D01*
X464473Y207962D01*
X464056Y208379D01*
X463588Y208739D01*
X463077Y209033D01*
X462532Y209259D01*
X461962Y209412D01*
X218100Y475955D02*
X218023Y475370D01*
X217870Y474800D01*
X217645Y474255D01*
X217350Y473745D01*
X216991Y473277D01*
X216573Y472859D01*
X216105Y472500D01*
X215595Y472205D01*
X215050Y471980D01*
X214480Y471827D01*
X213895Y471750D01*
X213305Y471750D01*
X212720Y471827D01*
X212150Y471980D01*
X211605Y472205D01*
X211095Y472500D01*
X210627Y472859D01*
X210209Y473277D01*
X209850Y473745D01*
X209555Y474255D01*
X209330Y474800D01*
X209177Y475370D01*
X209100Y475955D01*
X209100Y476545D01*
X209177Y477130D01*
X209330Y477700D01*
X209555Y478245D01*
X209850Y478755D01*
X210209Y479223D01*
X210627Y479641D01*
X211095Y480000D01*
X211605Y480295D01*
X212150Y480520D01*
X212720Y480673D01*
X213305Y480750D01*
X213895Y480750D01*
X214480Y480673D01*
X215050Y480520D01*
X215595Y480295D01*
X216105Y480000D01*
X216573Y479641D01*
X216991Y479223D01*
X217350Y478755D01*
X217645Y478245D01*
X217870Y477700D01*
X218023Y477130D01*
X218100Y476545D01*
X218100Y475955D01*
X248100Y475955D02*
X248023Y475370D01*
X247870Y474800D01*
X247645Y474255D01*
X247350Y473745D01*
X246991Y473277D01*
X246573Y472859D01*
X246105Y472500D01*
X245595Y472205D01*
X245050Y471980D01*
X244480Y471827D01*
X243895Y471750D01*
X243305Y471750D01*
X242720Y471827D01*
X242150Y471980D01*
X241605Y472205D01*
X241095Y472500D01*
X240627Y472859D01*
X240209Y473277D01*
X239850Y473745D01*
X239555Y474255D01*
X239330Y474800D01*
X239177Y475370D01*
X239100Y475955D01*
X239100Y476545D01*
X239177Y477130D01*
X239330Y477700D01*
X239555Y478245D01*
X239850Y478755D01*
X240209Y479223D01*
X240627Y479641D01*
X241095Y480000D01*
X241605Y480295D01*
X242150Y480520D01*
X242720Y480673D01*
X243305Y480750D01*
X243895Y480750D01*
X244480Y480673D01*
X245050Y480520D01*
X245595Y480295D01*
X246105Y480000D01*
X246573Y479641D01*
X246991Y479223D01*
X247350Y478755D01*
X247645Y478245D01*
X247870Y477700D01*
X248023Y477130D01*
X248100Y476545D01*
X248100Y475955D01*
M02*
