G04 EAGLE Gerber RS-274X export*
G75*
%MOMM*%
%FSLAX34Y34*%
%LPD*%
%INSoldermask Bottom*%
%IPPOS*%
%AMOC8*
5,1,8,0,0,1.08239X$1,22.5*%
G01*
%ADD10C,1.625600*%
%ADD11C,0.505344*%
%ADD12C,1.053200*%
%ADD13C,2.082800*%
%ADD14R,0.903200X1.703200*%
%ADD15R,1.203200X0.803200*%
%ADD16R,1.203200X1.003200*%
%ADD17C,1.103200*%
%ADD18R,1.903200X1.203200*%
%ADD19R,1.403200X3.203200*%
%ADD20R,3.203200X1.403200*%
%ADD21C,0.959600*%


D10*
X78900Y177800D03*
X98900Y177800D03*
D11*
X407056Y383177D02*
X411059Y377460D01*
X407056Y383177D02*
X412773Y387180D01*
X416776Y381463D01*
X411059Y377460D01*
X407698Y382260D02*
X416218Y382260D01*
X412857Y387060D02*
X412602Y387060D01*
X421424Y393237D02*
X425427Y387520D01*
X421424Y393237D02*
X427141Y397240D01*
X431144Y391523D01*
X425427Y387520D01*
X422066Y392320D02*
X430586Y392320D01*
X427225Y397120D02*
X426970Y397120D01*
X439841Y378190D02*
X443844Y372473D01*
X438127Y368470D01*
X434124Y374187D01*
X439841Y378190D01*
X443286Y373270D02*
X434766Y373270D01*
X439670Y378070D02*
X439925Y378070D01*
X425473Y368130D02*
X429476Y362413D01*
X423759Y358410D01*
X419756Y364127D01*
X425473Y368130D01*
X428918Y363210D02*
X420398Y363210D01*
X425302Y368010D02*
X425557Y368010D01*
D12*
X28350Y273000D03*
X28350Y235000D03*
D13*
X368300Y114300D03*
X368300Y139700D03*
X317500Y114300D03*
X317500Y139700D03*
X203200Y27940D03*
X228600Y27940D03*
X254000Y27940D03*
X279400Y27940D03*
D14*
G36*
X425079Y171138D02*
X427417Y179862D01*
X443867Y175454D01*
X441529Y166730D01*
X425079Y171138D01*
G37*
G36*
X428961Y185627D02*
X431299Y194351D01*
X447749Y189943D01*
X445411Y181219D01*
X428961Y185627D01*
G37*
G36*
X436726Y214605D02*
X439064Y223329D01*
X455514Y218921D01*
X453176Y210197D01*
X436726Y214605D01*
G37*
D15*
G36*
X462848Y157427D02*
X459734Y145806D01*
X451976Y147885D01*
X455090Y159506D01*
X462848Y157427D01*
G37*
D16*
G36*
X443530Y162603D02*
X440416Y150982D01*
X430726Y153579D01*
X433840Y165200D01*
X443530Y162603D01*
G37*
D15*
G36*
X481742Y227939D02*
X478628Y216318D01*
X470870Y218397D01*
X473984Y230018D01*
X481742Y227939D01*
G37*
D16*
G36*
X462424Y233115D02*
X459310Y221494D01*
X449620Y224091D01*
X452734Y235712D01*
X462424Y233115D01*
G37*
D17*
X453318Y176011D03*
X461082Y204989D03*
X213600Y476250D03*
X243600Y476250D03*
D18*
X419100Y311100D03*
X419100Y273100D03*
D19*
X286600Y247200D03*
X266600Y247200D03*
X246600Y247200D03*
X226600Y247200D03*
X206600Y247200D03*
X186600Y247200D03*
X166600Y247200D03*
X146600Y247200D03*
X286600Y411200D03*
X266600Y411200D03*
X226600Y411200D03*
X246600Y411200D03*
X206600Y411200D03*
X186600Y411200D03*
X166600Y411200D03*
X146600Y411200D03*
D20*
X125600Y362200D03*
X125600Y342200D03*
X125600Y322200D03*
X125600Y302200D03*
X125600Y282200D03*
X125600Y382200D03*
D21*
X25400Y342900D03*
X44450Y342900D03*
X38100Y323850D03*
X19050Y323850D03*
X203200Y342900D03*
X215900Y342900D03*
X215900Y330200D03*
X203200Y330200D03*
X196850Y361950D03*
X215900Y387350D03*
X298450Y361950D03*
X311150Y361950D03*
X368300Y342900D03*
X381000Y342900D03*
X393700Y381000D03*
X400050Y387350D03*
X95250Y298450D03*
X101600Y304800D03*
X76200Y215900D03*
X88900Y215900D03*
X88900Y203200D03*
X76200Y203200D03*
X38100Y209550D03*
X25400Y184150D03*
X38100Y184150D03*
X25400Y171450D03*
X38100Y171450D03*
X349250Y190500D03*
X400050Y184150D03*
X342900Y222250D03*
X342900Y234950D03*
X196850Y450850D03*
X285750Y463550D03*
X298450Y152400D03*
X339725Y180975D03*
X387350Y327025D03*
X136525Y247650D03*
X76200Y304800D03*
X76200Y279400D03*
X57150Y323850D03*
X165100Y438150D03*
X44450Y368300D03*
X95250Y419100D03*
X412750Y127000D03*
X273050Y381000D03*
X415925Y238125D03*
X368300Y244475D03*
X304800Y431800D03*
X285750Y193675D03*
X209550Y431800D03*
X346075Y317500D03*
X339725Y352425D03*
X333375Y384175D03*
X288925Y346075D03*
X377825Y301625D03*
X358775Y311150D03*
X215900Y73025D03*
X238125Y190500D03*
X241300Y168275D03*
X193675Y177800D03*
X203200Y168275D03*
X184150Y292100D03*
X241300Y304800D03*
X349250Y304800D03*
X400050Y165100D03*
X400050Y203200D03*
X177800Y361950D03*
X257175Y317500D03*
X390525Y403225D03*
X419100Y339725D03*
X292100Y203200D03*
X355600Y203200D03*
M02*
