G04 EAGLE Gerber RS-274X export*
G75*
%MOMM*%
%FSLAX34Y34*%
%LPD*%
%INSoldermask Top*%
%IPPOS*%
%AMOC8*
5,1,8,0,0,1.08239X$1,22.5*%
G01*
%ADD10R,1.203200X1.303200*%
%ADD11R,1.303200X1.203200*%
%ADD12C,1.625600*%
%ADD13R,1.403200X0.903200*%
%ADD14R,1.653200X0.603200*%
%ADD15C,1.053200*%
%ADD16R,1.700000X2.000000*%
%ADD17R,1.700000X2.700000*%
%ADD18C,2.082800*%
%ADD19C,1.103200*%
%ADD20R,0.903200X1.703200*%
%ADD21R,1.203200X0.803200*%
%ADD22R,1.203200X1.003200*%
%ADD23R,0.753200X1.403200*%
%ADD24R,0.558800X1.879600*%
%ADD25R,2.513200X2.663200*%
%ADD26R,1.603200X1.803200*%
%ADD27C,0.959600*%

G36*
X203713Y133710D02*
X203713Y133710D01*
X203711Y133711D01*
X203668Y133691D01*
X203624Y133673D01*
X203624Y133671D01*
X203622Y133670D01*
X203589Y133585D01*
X203589Y107715D01*
X203590Y107713D01*
X203589Y107711D01*
X203609Y107668D01*
X203627Y107624D01*
X203629Y107624D01*
X203630Y107622D01*
X203715Y107589D01*
X228085Y107589D01*
X228087Y107590D01*
X228089Y107589D01*
X228132Y107609D01*
X228176Y107627D01*
X228176Y107629D01*
X228178Y107630D01*
X228211Y107715D01*
X228211Y133585D01*
X228210Y133587D01*
X228211Y133589D01*
X228191Y133632D01*
X228173Y133676D01*
X228171Y133676D01*
X228170Y133678D01*
X228085Y133711D01*
X203715Y133711D01*
X203713Y133710D01*
G37*
%LPC*%
G36*
X213837Y130398D02*
X213837Y130398D01*
X213837Y126650D01*
X210089Y126650D01*
X210089Y130398D01*
X213837Y130398D01*
G37*
%LPD*%
%LPC*%
G36*
X217963Y126650D02*
X217963Y126650D01*
X217963Y130398D01*
X221711Y130398D01*
X221711Y126650D01*
X217963Y126650D01*
G37*
%LPD*%
%LPC*%
G36*
X213837Y122524D02*
X213837Y122524D01*
X213837Y118776D01*
X210089Y118776D01*
X210089Y122524D01*
X213837Y122524D01*
G37*
%LPD*%
%LPC*%
G36*
X217963Y118776D02*
X217963Y118776D01*
X217963Y122524D01*
X221711Y122524D01*
X221711Y118776D01*
X217963Y118776D01*
G37*
%LPD*%
%LPC*%
G36*
X213837Y114650D02*
X213837Y114650D01*
X213837Y110902D01*
X210089Y110902D01*
X210089Y114650D01*
X213837Y114650D01*
G37*
%LPD*%
%LPC*%
G36*
X217963Y110902D02*
X217963Y110902D01*
X217963Y114650D01*
X221711Y114650D01*
X221711Y110902D01*
X217963Y110902D01*
G37*
%LPD*%
D10*
X266700Y151375D03*
X266700Y134375D03*
D11*
X313300Y374650D03*
X296300Y374650D03*
X326000Y225552D03*
X309000Y225552D03*
X326000Y204978D03*
X309000Y204978D03*
D10*
X165100Y134375D03*
X165100Y151375D03*
D12*
X78900Y177800D03*
X98900Y177800D03*
D13*
X226300Y247000D03*
X226300Y261000D03*
X256300Y247000D03*
X256300Y261000D03*
D14*
X33600Y254000D03*
X33600Y260500D03*
X33600Y267000D03*
X33600Y247500D03*
X33600Y241000D03*
D15*
X28350Y273000D03*
X28350Y235000D03*
D16*
X6350Y290840D03*
X6350Y217160D03*
D17*
X6350Y254000D03*
D18*
X368300Y114300D03*
X368300Y139700D03*
X317500Y114300D03*
X317500Y139700D03*
X203200Y27940D03*
X228600Y27940D03*
X254000Y27940D03*
X279400Y27940D03*
D11*
X173600Y111125D03*
X156600Y111125D03*
D10*
X78350Y368300D03*
X61350Y368300D03*
D11*
X366150Y203200D03*
X383150Y203200D03*
D10*
X309000Y313944D03*
X326000Y313944D03*
X309000Y273050D03*
X326000Y273050D03*
D11*
X366150Y184150D03*
X383150Y184150D03*
D10*
X309000Y184150D03*
X326000Y184150D03*
X383150Y222250D03*
X366150Y222250D03*
X309000Y293624D03*
X326000Y293624D03*
D11*
X359800Y381000D03*
X376800Y381000D03*
X226450Y374650D03*
X243450Y374650D03*
X359800Y361950D03*
X376800Y361950D03*
D19*
X453318Y176011D03*
X461082Y204989D03*
D20*
X206100Y458750D03*
X221100Y458750D03*
X251100Y458750D03*
D21*
X192100Y486250D03*
D22*
X192100Y465250D03*
D21*
X265100Y486250D03*
D22*
X265100Y465250D03*
D19*
X213600Y476250D03*
X243600Y476250D03*
D23*
X257200Y329899D03*
X266700Y329899D03*
X276200Y329899D03*
X276200Y355901D03*
X257200Y355901D03*
D24*
X193150Y92456D03*
X199650Y92456D03*
X206150Y92456D03*
X212650Y92456D03*
X219150Y92456D03*
X225650Y92456D03*
X232150Y92456D03*
X238650Y92456D03*
X238650Y148844D03*
X232150Y148844D03*
X225650Y148844D03*
X219150Y148844D03*
X212650Y148844D03*
X206150Y148844D03*
X199650Y148844D03*
X193150Y148844D03*
D25*
X215900Y120650D03*
D10*
X61350Y342900D03*
X78350Y342900D03*
X61350Y393700D03*
X78350Y393700D03*
D23*
X155550Y355901D03*
X146050Y355901D03*
X136550Y355901D03*
X136550Y329899D03*
X155550Y329899D03*
D10*
X114300Y321700D03*
X114300Y338700D03*
D26*
X132050Y387350D03*
X160050Y387350D03*
X132050Y298450D03*
X160050Y298450D03*
D27*
X25400Y342900D03*
X44450Y342900D03*
X38100Y323850D03*
X19050Y323850D03*
X203200Y342900D03*
X215900Y342900D03*
X215900Y330200D03*
X203200Y330200D03*
X196850Y361950D03*
X215900Y387350D03*
X298450Y361950D03*
X311150Y361950D03*
X368300Y342900D03*
X381000Y342900D03*
X393700Y381000D03*
X400050Y387350D03*
X95250Y298450D03*
X101600Y304800D03*
X76200Y215900D03*
X88900Y215900D03*
X88900Y203200D03*
X76200Y203200D03*
X38100Y209550D03*
X25400Y184150D03*
X38100Y184150D03*
X25400Y171450D03*
X38100Y171450D03*
X349250Y190500D03*
X400050Y184150D03*
X342900Y222250D03*
X342900Y234950D03*
X196850Y450850D03*
X285750Y463550D03*
X298450Y152400D03*
X339725Y180975D03*
X387350Y327025D03*
X136525Y247650D03*
X76200Y304800D03*
X76200Y279400D03*
X57150Y323850D03*
X165100Y438150D03*
X44450Y368300D03*
X95250Y419100D03*
X412750Y127000D03*
X273050Y381000D03*
X415925Y238125D03*
X368300Y244475D03*
X304800Y431800D03*
X285750Y193675D03*
X209550Y431800D03*
X346075Y317500D03*
X339725Y352425D03*
X333375Y384175D03*
X288925Y346075D03*
X377825Y301625D03*
X358775Y311150D03*
X215900Y73025D03*
X238125Y190500D03*
X241300Y168275D03*
X193675Y177800D03*
X203200Y168275D03*
X184150Y292100D03*
X241300Y304800D03*
X349250Y304800D03*
X400050Y165100D03*
X400050Y203200D03*
X177800Y361950D03*
X257175Y317500D03*
X390525Y403225D03*
X419100Y339725D03*
X292100Y203200D03*
X355600Y203200D03*
M02*
