M48
;GenerationSoftware,Autodesk,EAGLE,9.2.2*%
;CreationDate,2019-07-14T05:05:23Z*%
FMAT,2
ICI,OFF
METRIC,TZ,000.000
T5C0.350
T4C0.800
T3C0.850
T2C0.900
T1C1.016
%
G90
M71
T1
X27940Y2794
X36830Y11430
X36830Y13970
X31750Y11430
X31750Y13970
X20320Y2794
X22860Y2794
X25400Y2794
T2
X21360Y47625
X45332Y17601
X46108Y20499
X24360Y47625
T3
X2835Y27300
X2835Y23500
T4
X7890Y17780
X9890Y17780
T5
X9525Y29845
X10160Y30480
X7620Y21590
X8890Y21590
X8890Y20320
X7620Y20320
X3810Y20955
X2540Y18415
X3810Y18415
X2540Y17145
X3810Y17145
X34925Y19050
X40005Y18415
X34290Y22225
X34290Y23495
X19685Y45085
X28575Y46355
X29845Y15240
X33973Y18098
X38735Y32702
X13652Y24765
X7620Y30480
X7620Y27940
X5715Y32385
X16510Y43815
X4445Y36830
X9525Y41910
X41275Y12700
X31115Y36195
X41593Y23812
X36830Y24447
X30480Y43180
X28575Y19368
X20955Y43180
X34608Y31750
X33973Y35243
X33338Y38418
X28892Y34608
X37783Y30162
X35878Y31115
X21590Y7302
X23812Y19050
X24130Y16828
X19368Y17780
X20320Y16828
X18415Y29210
X24130Y30480
X34925Y30480
X40005Y16510
X2540Y34290
X17780Y36195
X25717Y31750
X39053Y40323
X41910Y33973
X29210Y20320
X35560Y20320
X4445Y34290
X3810Y32385
X1905Y32385
X20320Y34290
X27305Y38100
X21590Y34290
X21590Y33020
X20320Y33020
X19685Y36195
X21590Y38735
X29845Y36195
X36830Y34290
X38100Y34290
X39370Y38100
X40005Y38735
X40005Y20320
M30